<?xml version="1.0" standalone="no"?>
<!DOCTYPE svg PUBLIC "-//W3C//DTD SVG 20010904//EN"
 "http://www.w3.org/TR/2001/REC-SVG-20010904/DTD/svg10.dtd">
<svg version="1.0" xmlns="http://www.w3.org/2000/svg"
 width="727.000000pt" height="727.000000pt" viewBox="0 0 727.000000 727.000000"
 preserveAspectRatio="xMidYMid meet">
<metadata>
Created by potrace 1.11, written by Peter Selinger 2001-2013
</metadata>
<g transform="translate(0.000000,727.000000) scale(0.100000,-0.100000)"
fill="#000000" stroke="none">
<path d="M5322 7212 c-11 -31 -64 -192 -117 -357 -93 -288 -267 -828 -380
-1175 -30 -91 -104 -320 -165 -510 -61 -190 -119 -370 -130 -400 -10 -30 -59
-183 -110 -340 -50 -157 -118 -366 -150 -465 -98 -302 -174 -535 -285 -880
-59 -181 -131 -404 -160 -495 -30 -91 -74 -228 -99 -305 -24 -77 -48 -151 -53
-165 -4 -14 -10 200 -13 500 l-5 525 -25 0 -25 0 -5 -530 c-3 -292 -6 -524 -8
-516 -2 13 -111 352 -272 846 -37 116 -109 338 -160 495 -50 157 -95 296 -100
310 -16 46 -212 651 -377 1165 -20 61 -48 148 -63 195 -16 47 -74 227 -130
400 -56 173 -129 398 -162 500 -33 102 -82 253 -108 335 -50 153 -125 386
-224 690 -30 94 -58 182 -62 198 -6 28 -27 35 -54 17 -16 -10 -24 20 125 -440
97 -299 262 -811 375 -1160 56 -173 130 -403 165 -510 74 -226 154 -474 220
-680 26 -80 54 -165 62 -190 15 -47 84 -259 177 -547 30 -93 79 -246 110 -340
31 -95 81 -249 111 -343 30 -93 80 -248 111 -342 31 -95 57 -177 59 -183 1 -5
5 -17 8 -25 11 -27 117 -360 117 -367 0 -6 -75 111 -523 812 -126 198 -241
378 -256 400 -14 22 -30 48 -36 57 -5 10 -75 119 -155 243 -80 124 -183 285
-230 358 -47 73 -108 169 -136 213 -28 43 -197 306 -374 584 -432 677 -388
612 -410 600 -10 -6 -21 -14 -24 -19 -5 -7 444 -716 831 -1316 36 -55 148
-230 250 -390 102 -159 251 -393 332 -520 81 -126 217 -338 301 -470 84 -132
186 -291 226 -353 41 -62 74 -115 74 -117 0 -3 16 -27 36 -55 20 -27 33 -50
30 -50 -3 0 -25 19 -49 43 -25 23 -73 69 -108 102 -35 33 -138 130 -229 215
-90 85 -176 166 -191 180 -15 14 -98 93 -185 175 -87 83 -174 165 -194 183
-19 19 -98 93 -174 165 -76 73 -156 148 -176 167 -20 19 -101 96 -180 170 -79
74 -161 152 -184 174 -64 60 -204 193 -283 269 -63 61 -74 67 -92 57 -12 -6
-21 -16 -21 -23 0 -7 61 -71 137 -143 75 -71 153 -145 173 -164 103 -98 221
-210 365 -345 87 -82 173 -163 190 -180 48 -45 305 -288 345 -325 36 -33 319
-301 375 -355 17 -16 103 -97 191 -180 87 -82 184 -174 214 -203 l55 -52 -60
31 c-33 18 -141 75 -240 129 -99 53 -220 118 -270 145 -49 26 -112 60 -140 75
-27 15 -90 49 -140 75 -49 26 -103 56 -120 65 -39 23 -133 73 -270 145 -60 32
-114 61 -120 65 -5 4 -55 31 -110 60 -55 29 -156 83 -225 120 -287 154 -321
172 -324 169 -9 -10 -27 -51 -24 -53 2 -1 23 -13 48 -25 43 -22 141 -75 245
-131 28 -15 232 -125 455 -245 223 -120 493 -265 600 -323 107 -57 227 -122
265 -142 39 -21 126 -68 195 -106 69 -37 137 -74 153 -82 15 -7 27 -15 27 -17
0 -4 10 -6 -355 84 -159 40 -372 92 -471 116 -100 25 -327 81 -505 125 -178
45 -333 83 -344 86 -11 2 -81 19 -155 37 l-135 34 -9 -25 c-4 -13 -4 -27 0
-32 5 -4 203 -55 439 -113 1066 -263 1375 -339 1445 -357 l75 -19 -60 -1 c-33
0 -422 -1 -864 -1 -443 0 -808 -2 -811 -4 -4 -2 -5 -17 -3 -32 l5 -28 866 1
c496 1 854 -3 837 -8 -16 -4 -39 -10 -50 -12 -19 -4 -143 -35 -390 -97 -66
-17 -131 -33 -145 -35 -14 -3 -50 -12 -80 -20 -30 -9 -66 -18 -79 -21 -13 -2
-166 -39 -340 -83 -307 -76 -316 -79 -313 -102 2 -13 7 -26 10 -29 4 -3 138
26 297 66 1198 296 1125 279 1125 271 0 -2 -26 -17 -57 -34 -136 -71 -185 -99
-182 -108 1 -5 4 -17 7 -26 2 -10 9 -18 16 -18 6 1 92 45 191 100 99 54 181
97 183 95 3 -3 -204 -328 -690 -1086 -76 -119 -138 -220 -138 -225 0 -5 10
-15 22 -23 18 -11 22 -11 30 0 4 8 125 196 268 419 144 223 311 484 372 580
112 177 133 208 124 180 -36 -114 -104 -326 -191 -595 -59 -181 -134 -413
-166 -515 -33 -102 -66 -202 -74 -223 -13 -37 -13 -38 11 -49 15 -7 28 -8 33
-2 5 5 46 124 91 264 155 483 302 935 340 1050 l39 115 0 -840 1 -841 30 1 30
0 1 840 1 840 34 -105 c61 -184 302 -927 391 -1205 19 -60 39 -114 44 -119 5
-6 18 -5 34 2 21 10 23 15 15 34 -5 13 -38 113 -73 223 -96 295 -164 505 -272
838 -53 165 -94 301 -91 305 3 3 6 1 6 -5 0 -6 70 -120 156 -254 86 -134 181
-282 211 -329 30 -47 131 -204 224 -349 93 -146 171 -266 173 -268 9 -9 47 23
43 37 -3 12 -149 244 -312 495 -153 237 -515 806 -515 810 0 4 24 -7 53 -23
28 -16 88 -49 132 -72 44 -24 104 -56 133 -72 54 -30 65 -30 82 2 10 19 -11
34 -177 120 -66 34 -78 44 -40 35 78 -17 421 -101 857 -209 278 -68 514 -126
524 -128 14 -2 21 5 27 24 7 26 4 28 -29 37 -60 16 -805 201 -827 205 -23 5
-545 135 -560 140 -5 2 380 3 857 2 l866 -1 5 28 c2 15 1 30 -2 32 -4 2 -391
3 -860 3 -469 0 -854 2 -856 4 -2 2 26 11 63 21 90 22 665 164 1331 328 335
82 545 139 549 147 2 7 1 21 -4 31 -8 17 -22 15 -204 -30 -1238 -307 -1774
-438 -1776 -436 -2 1 46 27 104 58 59 31 280 150 492 264 212 114 419 225 460
248 356 191 604 324 650 349 30 17 106 57 167 90 62 33 115 63 118 68 3 4 -3
18 -13 29 l-17 22 -280 -151 c-154 -84 -323 -174 -375 -202 -52 -28 -108 -58
-125 -68 -16 -10 -84 -46 -150 -80 -66 -35 -124 -66 -130 -70 -5 -4 -55 -31
-110 -60 -55 -29 -127 -67 -160 -85 -33 -18 -89 -48 -125 -68 -36 -19 -85 -46
-110 -59 -44 -24 -105 -57 -315 -168 -55 -29 -107 -58 -115 -63 -23 -15 228
225 644 616 28 26 78 74 111 105 139 132 379 359 409 386 42 39 179 169 372
353 88 84 169 160 180 170 65 57 314 298 314 304 0 12 -31 40 -40 37 -4 -2
-79 -70 -165 -153 -86 -82 -171 -163 -189 -179 -17 -16 -74 -70 -126 -119 -52
-49 -129 -122 -170 -161 -42 -39 -121 -114 -176 -166 -179 -169 -398 -377
-434 -410 -19 -18 -104 -98 -189 -179 -84 -80 -165 -157 -180 -170 -14 -13
-96 -90 -181 -171 -240 -228 -240 -228 -192 -157 16 23 206 319 422 657 467
730 609 953 665 1040 23 36 94 146 157 245 63 99 274 427 467 730 l352 549
-23 18 c-13 9 -27 13 -31 9 -7 -7 -147 -224 -342 -531 -101 -159 -380 -594
-467 -730 -34 -52 -76 -117 -93 -145 -18 -27 -218 -340 -445 -695 -227 -355
-427 -667 -444 -695 -18 -27 -69 -106 -113 -175 -44 -69 -102 -159 -129 -200
-27 -41 -52 -82 -56 -90 -20 -45 -1 23 58 203 99 303 172 530 279 862 53 165
113 350 133 410 20 61 37 112 37 115 1 3 17 55 37 115 20 61 82 252 138 425
55 173 105 326 110 340 5 14 55 167 110 340 137 425 255 789 385 1190 35 107
109 337 166 510 56 173 102 316 101 317 0 2 19 62 44 135 24 73 44 137 44 143
0 7 -11 17 -24 23 -23 10 -25 8 -44 -46z"/>
</g>
</svg>
